<svg xmlns="http://www.w3.org/2000/svg" xmlns:xlink="http://www.w3.org/1999/xlink" version="1.1" x="0px" y="0px" viewBox="0 0 100 100" enable-background="new 0 0 100 100" xml:space="preserve"><path fill="#000000" d="M50,9.312c-24.853,0-45,20.146-45,44.999c0,14.95,7.292,28.194,18.51,36.378  C27.142,79.525,37.625,71.454,50,71.454c12.374,0,22.858,8.071,26.49,19.234C87.708,82.505,95,69.261,95,54.311  C95,29.458,74.853,9.312,50,9.312z M50,65.025c-9.467,0-17.143-7.675-17.143-17.143S40.533,30.74,50,30.74  c9.468,0,17.144,7.675,17.144,17.143S59.468,65.025,50,65.025z"></path></svg>