<svg xmlns="http://www.w3.org/2000/svg" xmlns:xlink="http://www.w3.org/1999/xlink" version="1.2" baseProfile="tiny" x="0px" y="0px" viewBox="0 0 100 100" xml:space="preserve"><path d="M15,30h2.5v62.5c0,1.381,1.119,2.5,2.5,2.5h60c1.381,0,2.5-1.119,2.5-2.5V30H85c1.381,0,2.5-1.119,2.5-2.5v-10   c0-1.381-1.119-2.5-2.5-2.5H62.5V7.5C62.5,6.119,61.381,5,60,5H40c-1.381,0-2.5,1.119-2.5,2.5V15H15c-1.381,0-2.5,1.119-2.5,2.5v10   C12.5,28.881,13.619,30,15,30z M77.5,90h-55V30h55V90z M42.5,10h15v5h-15V10z M17.5,20H40h20h22.5v5H80H20h-2.5V20z"></path><path d="M50,85c1.381,0,2.5-1.119,2.5-2.5v-45c0-1.381-1.119-2.5-2.5-2.5s-2.5,1.119-2.5,2.5v45C47.5,83.881,48.619,85,50,85z"></path><path d="M35,85c1.381,0,2.5-1.119,2.5-2.5v-45c0-1.381-1.119-2.5-2.5-2.5s-2.5,1.119-2.5,2.5v45C32.5,83.881,33.619,85,35,85z"></path><path d="M65,85c1.381,0,2.5-1.119,2.5-2.5v-45c0-1.381-1.119-2.5-2.5-2.5s-2.5,1.119-2.5,2.5v45C62.5,83.881,63.619,85,65,85z"></path></svg>